<svg width="2120" height="1835" viewBox="0 0 2120 1835" fill="none" xmlns="http://www.w3.org/2000/svg">
<path d="M1279 669.5C1276 634.5 1222.5 576 1169 576V498C1325 498 1396.23 670.375 1356 750C1346 724.5 1326 707.5 1279 669.5Z" fill="#55AD88"/>
<path d="M1231.5 813.5C1221.1 819.5 1191.33 832.833 1179 836.5L1132.37 839.384L1187 915.5H1190.5L1220.5 909L1259.5 890.5L1253.5 850L1231.5 813.5Z" fill="#55AD88"/>
<rect x="919" y="576" width="78" height="250" transform="rotate(-90 919 576)" fill="#55AD88"/>
<rect x="919" y="576" width="78" height="250" transform="rotate(-90 919 576)" stroke="white"/>
<path d="M797 838H872V1089H797V838Z" fill="#55AD88"/>
<path d="M871 838H1188C1215.05 867.786 1214.3 884.88 1188 916H871V838Z" fill="#55AD88"/>
<rect x="796" y="494" width="75" height="251" fill="#333333"/>
<rect x="862" y="667" width="305" height="78" fill="#333333"/>
<rect x="951" y="1009" width="218" height="78" fill="#333333"/>
<path d="M1153.91 1086.69C1181.5 1087.54 1208.99 1082.95 1234.8 1073.18C1260.62 1063.41 1284.26 1048.65 1304.37 1029.75C1324.48 1010.84 1340.67 988.161 1352.02 962.998C1363.37 937.835 1369.65 910.683 1370.5 883.094C1371.35 855.504 1366.77 828.016 1357 802.199C1347.23 776.383 1332.47 752.744 1313.56 732.631C1294.66 712.519 1271.97 696.327 1246.81 684.98C1221.65 673.633 1194.5 667.354 1166.91 666.501L1164.49 744.516C1181.84 745.052 1198.91 749 1214.73 756.133C1230.55 763.266 1244.8 773.446 1256.69 786.09C1268.58 798.734 1277.85 813.595 1284 829.825C1290.14 846.055 1293.02 863.335 1292.49 880.68C1291.95 898.025 1288 915.094 1280.87 930.913C1273.73 946.733 1263.56 960.992 1250.91 972.877C1238.27 984.762 1223.41 994.041 1207.18 1000.18C1190.95 1006.32 1173.67 1009.21 1156.32 1008.67L1153.91 1086.69Z" fill="#333333"/>
<path d="M47.362 1340.01V1390.94H70.686C79.254 1390.94 85.68 1388.41 89.964 1383.33C94.248 1378.25 96.39 1372.06 96.39 1364.76C96.39 1356.2 93.772 1349.93 88.536 1345.96C83.4587 1342 76.636 1340.01 68.068 1340.01H47.362ZM47.362 1413.08V1465.44H71.638C76.2393 1465.44 80.5233 1464.88 84.49 1463.77C88.6153 1462.66 92.1853 1461.07 95.2 1459.01C98.2147 1456.79 100.595 1454.01 102.34 1450.68C104.085 1447.35 104.958 1443.46 104.958 1439.02C104.958 1434.1 103.927 1430.06 101.864 1426.88C99.8013 1423.55 97.0247 1420.85 93.534 1418.79C90.202 1416.73 86.3147 1415.3 81.872 1414.51C77.588 1413.55 73.1453 1413.08 68.544 1413.08H47.362ZM21.182 1489V1316.45H66.878C75.2873 1316.45 82.9033 1317.32 89.726 1319.07C96.5487 1320.65 102.34 1323.27 107.1 1326.92C111.86 1330.41 115.509 1335.01 118.048 1340.73C120.745 1346.28 122.094 1353.1 122.094 1361.19C122.094 1365.64 121.618 1370 120.666 1374.28C119.873 1378.57 118.445 1382.53 116.382 1386.18C114.478 1389.67 111.86 1392.77 108.528 1395.47C105.355 1398.16 101.388 1400.23 96.628 1401.65C100.753 1402.45 104.799 1403.8 108.766 1405.7C112.891 1407.6 116.541 1410.22 119.714 1413.55C122.887 1416.73 125.426 1420.69 127.33 1425.45C129.393 1430.21 130.424 1435.85 130.424 1442.35C130.424 1450.6 128.837 1457.66 125.664 1463.53C122.491 1469.4 118.286 1474.24 113.05 1478.05C107.814 1481.86 101.785 1484.64 94.962 1486.38C88.1393 1488.13 81.0787 1489 73.78 1489H21.182ZM224.375 1489V1316.45H271.499C280.543 1316.45 288.793 1317.64 296.251 1320.02C303.867 1322.4 310.372 1325.97 315.767 1330.73C321.32 1335.33 325.604 1341.04 328.619 1347.87C331.633 1354.53 333.141 1362.23 333.141 1370.95C333.141 1375.71 332.665 1380.47 331.713 1385.23C330.761 1389.83 329.174 1394.36 326.953 1398.8C324.89 1403.08 322.193 1407.13 318.861 1410.94C315.529 1414.59 311.483 1417.68 306.723 1420.22C313.069 1430.21 319.971 1441.32 327.429 1453.54C334.886 1465.6 342.423 1477.42 350.039 1489H318.861C315.687 1484.08 312.355 1478.92 308.865 1473.53C305.533 1468.14 302.121 1462.82 298.631 1457.58C295.299 1452.19 291.967 1446.95 288.635 1441.88C285.461 1436.64 282.447 1431.8 279.591 1427.36H274.831H250.555V1489H224.375ZM250.555 1402.84H274.117C280.463 1402.84 285.779 1401.81 290.063 1399.75C294.347 1397.53 297.679 1394.83 300.059 1391.66C302.597 1388.48 304.343 1385.07 305.295 1381.42C306.405 1377.77 306.961 1374.44 306.961 1371.43C306.961 1368.41 306.405 1365.16 305.295 1361.67C304.343 1358.02 302.597 1354.69 300.059 1351.67C297.52 1348.5 294.109 1345.88 289.825 1343.82C285.699 1341.76 280.543 1340.73 274.355 1340.73H250.555V1402.84ZM542.564 1489C541.77 1487.25 540.66 1484.72 539.232 1481.38C537.804 1478.05 536.138 1474.24 534.234 1469.96C532.488 1465.52 530.505 1460.76 528.284 1455.68C526.221 1450.44 524.079 1445.05 521.858 1439.5H460.93L440.462 1489H414.758L491.632 1308.36C492.584 1310.58 494.25 1314.63 496.63 1320.5C499.168 1326.37 502.104 1333.43 505.436 1341.68C508.926 1349.77 512.734 1358.81 516.86 1368.81C521.144 1378.65 525.428 1388.64 529.712 1398.8C534.154 1408.95 538.438 1418.95 542.564 1428.79C546.848 1438.62 550.735 1447.67 554.226 1455.92C557.716 1464.17 560.652 1471.23 563.032 1477.1C565.57 1482.81 567.316 1486.78 568.268 1489H542.564ZM469.974 1417.6H513.052C510.83 1412.36 508.688 1407.37 506.626 1402.61C504.722 1397.69 502.897 1393.24 501.152 1389.28C499.565 1385.15 498.137 1381.58 496.868 1378.57C495.598 1375.55 494.646 1373.17 494.012 1371.43C493.853 1371.11 493.456 1370 492.822 1368.1C492.346 1366.19 491.949 1364.45 491.632 1362.86C491.314 1364.45 490.838 1366.19 490.204 1368.1C489.569 1370 489.172 1371.11 489.014 1371.43L469.974 1417.6ZM651.677 1316.45H677.619V1489H651.677V1316.45ZM933.258 1316.45V1496.85C931.036 1494 926.752 1489.4 920.406 1483.05C914.059 1476.7 906.76 1469.4 898.51 1461.15C890.259 1452.9 881.453 1444.26 872.092 1435.21C862.889 1426.17 854.162 1417.6 845.912 1409.51C837.661 1401.26 830.442 1393.96 824.254 1387.61C818.066 1381.11 813.94 1376.51 811.878 1373.81L807.356 1367.62L808.07 1375.24V1489H781.89V1308.36C783.635 1310.58 786.491 1313.75 790.458 1317.88C794.583 1322 799.343 1326.84 804.738 1332.4C810.291 1337.79 816.32 1343.66 822.826 1350.01C829.49 1356.35 836.154 1362.78 842.818 1369.29C849.64 1375.79 856.304 1382.22 862.81 1388.56C869.474 1394.75 875.503 1400.54 880.898 1405.94C886.451 1411.33 891.211 1416.09 895.178 1420.22C899.144 1424.34 901.921 1427.44 903.508 1429.5L908.03 1436.16L907.316 1428.07V1316.45H933.258ZM1136.38 1325.97L1127.1 1347.15C1120.59 1344.77 1114.09 1342.87 1107.58 1341.44C1101.23 1340.01 1095.13 1339.3 1089.26 1339.3C1079.26 1339.3 1071.25 1341.36 1065.22 1345.49C1059.35 1349.61 1056.41 1354.85 1056.41 1361.19C1056.41 1366.59 1058.55 1370.95 1062.84 1374.28C1067.12 1377.46 1072.44 1380.39 1078.78 1383.09C1085.13 1385.63 1092.03 1388.25 1099.49 1390.94C1106.95 1393.48 1113.85 1396.81 1120.2 1400.94C1126.54 1405.07 1131.86 1410.3 1136.14 1416.65C1140.43 1422.84 1142.57 1430.85 1142.57 1440.69C1142.57 1448.3 1141.14 1455.2 1138.28 1461.39C1135.59 1467.42 1131.46 1472.66 1125.91 1477.1C1120.51 1481.54 1113.69 1484.95 1105.44 1487.33C1097.35 1489.71 1087.83 1490.9 1076.88 1490.9C1069.9 1490.9 1063.55 1490.43 1057.84 1489.48C1052.29 1488.52 1047.21 1487.33 1042.61 1485.91C1038.16 1484.32 1034.2 1482.65 1030.71 1480.91C1027.38 1479.16 1024.52 1477.58 1022.14 1476.15L1033.56 1453.54C1039.91 1457.19 1046.97 1460.12 1054.75 1462.34C1062.52 1464.57 1069.58 1465.68 1075.93 1465.68C1079.1 1465.68 1082.99 1465.28 1087.59 1464.49C1092.35 1463.69 1096.87 1462.34 1101.16 1460.44C1105.44 1458.38 1109.09 1455.68 1112.1 1452.35C1115.28 1449.02 1116.86 1444.81 1116.86 1439.73C1116.86 1435.13 1115.59 1431.25 1113.06 1428.07C1110.68 1424.74 1107.42 1421.88 1103.3 1419.5C1099.33 1416.97 1094.73 1414.74 1089.49 1412.84C1084.42 1410.78 1079.18 1408.71 1073.79 1406.65C1068.39 1404.43 1063.08 1402.13 1057.84 1399.75C1052.76 1397.37 1048.16 1394.51 1044.04 1391.18C1040.07 1387.69 1036.82 1383.72 1034.28 1379.28C1031.9 1374.68 1030.71 1369.21 1030.71 1362.86C1030.71 1356.99 1031.9 1351.2 1034.28 1345.49C1036.66 1339.77 1040.23 1334.7 1044.99 1330.25C1049.75 1325.81 1055.62 1322.24 1062.6 1319.54C1069.74 1316.85 1077.99 1315.5 1087.35 1315.5C1093.06 1315.5 1098.62 1315.97 1104.01 1316.93C1109.56 1317.88 1114.56 1318.99 1119.01 1320.26C1123.45 1321.37 1127.18 1322.48 1130.19 1323.59C1133.36 1324.7 1135.43 1325.49 1136.38 1325.97ZM1540.16 1489C1539.37 1487.25 1538.26 1484.72 1536.83 1481.38C1535.4 1478.05 1533.74 1474.24 1531.83 1469.96C1530.09 1465.52 1528.11 1460.76 1525.88 1455.68C1523.82 1450.44 1521.68 1445.05 1519.46 1439.5H1458.53L1438.06 1489H1412.36L1489.23 1308.36C1490.18 1310.58 1491.85 1314.63 1494.23 1320.5C1496.77 1326.37 1499.7 1333.43 1503.04 1341.68C1506.53 1349.77 1510.34 1358.81 1514.46 1368.81C1518.74 1378.65 1523.03 1388.64 1527.31 1398.8C1531.76 1408.95 1536.04 1418.95 1540.16 1428.79C1544.45 1438.62 1548.34 1447.67 1551.83 1455.92C1555.32 1464.17 1558.25 1471.23 1560.63 1477.1C1563.17 1482.81 1564.92 1486.78 1565.87 1489H1540.16ZM1467.57 1417.6H1510.65C1508.43 1412.36 1506.29 1407.37 1504.23 1402.61C1502.32 1397.69 1500.5 1393.24 1498.75 1389.28C1497.17 1385.15 1495.74 1381.58 1494.47 1378.57C1493.2 1375.55 1492.25 1373.17 1491.61 1371.43C1491.45 1371.11 1491.06 1370 1490.42 1368.1C1489.95 1366.19 1489.55 1364.45 1489.23 1362.86C1488.92 1364.45 1488.44 1366.19 1487.8 1368.1C1487.17 1370 1486.77 1371.11 1486.61 1371.43L1467.57 1417.6ZM1777.32 1476.62C1775.42 1478.05 1772.72 1479.64 1769.23 1481.38C1765.9 1482.97 1761.93 1484.48 1757.33 1485.91C1752.73 1487.33 1747.57 1488.52 1741.86 1489.48C1736.31 1490.43 1730.36 1490.9 1724.01 1490.9C1710.52 1490.9 1698.39 1488.6 1687.6 1484C1676.97 1479.24 1667.92 1472.9 1660.46 1464.96C1653.01 1457.03 1647.3 1447.83 1643.33 1437.35C1639.36 1426.88 1637.38 1415.78 1637.38 1404.03C1637.38 1391.02 1639.68 1379.04 1644.28 1368.1C1649.04 1357.15 1655.47 1347.71 1663.56 1339.77C1671.65 1331.84 1681.09 1325.65 1691.88 1321.21C1702.83 1316.77 1714.41 1314.55 1726.63 1314.55C1731.23 1314.55 1735.91 1314.86 1740.67 1315.5C1745.43 1316.13 1749.87 1317.01 1754 1318.12C1758.28 1319.23 1762.01 1320.58 1765.18 1322.16C1768.52 1323.59 1771.06 1325.1 1772.8 1326.68C1771.53 1328.59 1770.5 1330.17 1769.71 1331.44C1769.07 1332.71 1768.36 1334.06 1767.56 1335.49C1766.77 1336.76 1765.9 1338.27 1764.95 1340.01C1763.99 1341.76 1762.73 1344.06 1761.14 1346.91C1759.08 1345.49 1756.62 1344.3 1753.76 1343.34C1751.06 1342.39 1748.21 1341.6 1745.19 1340.96C1742.18 1340.33 1739.08 1339.85 1735.91 1339.54C1732.9 1339.22 1730.12 1339.06 1727.58 1339.06C1718.38 1339.06 1709.81 1340.81 1701.88 1344.3C1694.1 1347.63 1687.36 1352.23 1681.65 1358.1C1675.93 1363.81 1671.41 1370.48 1668.08 1378.09C1664.91 1385.71 1663.32 1393.64 1663.32 1401.89C1663.32 1409.98 1664.83 1417.76 1667.84 1425.22C1671.02 1432.67 1675.3 1439.34 1680.69 1445.21C1686.25 1451.08 1692.83 1455.76 1700.45 1459.25C1708.22 1462.74 1716.71 1464.49 1725.91 1464.49C1730.83 1464.49 1735.59 1464.01 1740.19 1463.06C1744.8 1462.11 1748.92 1461 1752.57 1459.73C1756.38 1458.46 1759.47 1457.19 1761.85 1455.92C1764.39 1454.65 1765.9 1453.7 1766.37 1453.06L1777.32 1476.62ZM1965.27 1489C1959.72 1481.86 1954.4 1475.04 1949.32 1468.53C1944.25 1462.03 1939.25 1455.52 1934.33 1449.02C1929.41 1442.51 1924.41 1435.93 1919.34 1429.26C1914.42 1422.6 1909.18 1415.7 1903.63 1408.56C1901.57 1410.78 1899.58 1412.84 1897.68 1414.74C1895.77 1416.49 1893.71 1418.31 1891.49 1420.22C1891.49 1432.44 1891.49 1443.94 1891.49 1454.73C1891.65 1465.36 1891.73 1476.78 1891.73 1489H1862.93V1316.45H1891.73V1380.95C1891.73 1382.38 1891.57 1383.8 1891.25 1385.23C1891.09 1386.5 1891.01 1387.85 1891.01 1389.28C1891.81 1388.17 1892.6 1387.22 1893.39 1386.42C1894.19 1385.47 1894.98 1384.36 1895.77 1383.09C1907.04 1372.46 1917.91 1361.43 1928.38 1350.01C1938.85 1338.43 1949.72 1327.24 1960.99 1316.45H1994.07C1982.17 1328.83 1970.35 1341.28 1958.61 1353.82C1947.02 1366.35 1935.28 1378.81 1923.38 1391.18C1930.05 1399.75 1936.39 1408.08 1942.42 1416.17C1948.61 1424.11 1954.64 1432.04 1960.51 1439.97C1966.54 1447.91 1972.57 1455.92 1978.6 1464.01C1984.63 1472.1 1990.89 1480.43 1997.4 1489H1965.27Z" fill="#333333"/>
<path d="M1260.24 1402.84H1283.8C1290.15 1402.84 1295.47 1401.73 1299.75 1399.51C1304.03 1397.29 1307.37 1394.59 1309.75 1391.42C1312.28 1388.25 1314.03 1384.84 1314.98 1381.19C1316.09 1377.54 1316.65 1374.28 1316.65 1371.43C1316.65 1368.41 1316.09 1365.16 1314.98 1361.67C1314.03 1358.02 1312.28 1354.69 1309.75 1351.67C1307.21 1348.5 1303.8 1345.88 1299.51 1343.82C1295.39 1341.76 1290.23 1340.73 1284.04 1340.73H1260.24V1402.84ZM1234.06 1489V1316.45H1281.19C1290.23 1316.45 1298.48 1317.64 1305.94 1320.02C1313.55 1322.4 1320.06 1325.97 1325.45 1330.73C1331.01 1335.33 1335.29 1341.04 1338.31 1347.87C1341.32 1354.53 1342.83 1362.23 1342.83 1370.95C1342.83 1377.77 1341.8 1384.6 1339.73 1391.42C1337.67 1398.08 1334.34 1404.11 1329.74 1409.51C1325.14 1414.74 1319.11 1419.03 1311.65 1422.36C1304.19 1425.69 1295.15 1427.36 1284.52 1427.36H1260.24V1489H1234.06Z" fill="#55AD88"/>
</svg>
