<svg width="2797" height="784" viewBox="0 0 2797 784" fill="none" xmlns="http://www.w3.org/2000/svg">
<path d="M483 191.5C480 156.5 426.5 98 373 98V20C529 20 600.23 192.375 560 272C550 246.5 530 229.5 483 191.5Z" fill="#55AD88"/>
<path d="M435.498 335.5C425.098 341.5 395.331 354.833 382.998 358.5L336.367 361.384L390.998 437.5H394.498L424.498 431L463.498 412.5L457.498 372L435.498 335.5Z" fill="#55AD88"/>
<rect x="123" y="98" width="78" height="250" transform="rotate(-90 123 98)" fill="#55AD88"/>
<rect x="123" y="98" width="78" height="250" transform="rotate(-90 123 98)" stroke="white"/>
<path d="M1 360H76V611H1V360Z" fill="#55AD88"/>
<path d="M75 360H392C419.052 389.786 418.302 406.88 392 438H75V360Z" fill="#55AD88"/>
<rect y="16" width="75" height="251" fill="#333333"/>
<rect x="66" y="189" width="305" height="78" fill="#333333"/>
<rect x="155" y="531" width="218" height="78" fill="#333333"/>
<path d="M357.908 608.688C385.498 609.541 412.985 604.952 438.802 595.182C464.618 585.413 488.257 570.654 508.37 551.748C528.482 532.843 544.674 510.161 556.021 484.998C567.368 459.835 573.647 432.683 574.501 405.094C575.354 377.504 570.765 350.016 560.995 324.199C551.226 298.383 536.467 274.744 517.561 254.631C498.656 234.519 475.974 218.327 450.811 206.98C425.648 195.633 398.496 189.354 370.906 188.501L368.493 266.516C385.838 267.052 402.907 271 418.726 278.133C434.545 285.266 448.805 295.446 460.69 308.09C472.575 320.734 481.854 335.595 487.995 351.825C494.137 368.055 497.022 385.335 496.486 402.68C495.949 420.025 492.001 437.094 484.868 452.913C477.735 468.733 467.556 482.992 454.912 494.877C442.267 506.762 427.406 516.041 411.176 522.182C394.947 528.324 377.666 531.209 360.321 530.673L357.908 608.688Z" fill="#333333"/>
<path d="M724.362 289.012V339.944H747.686C756.254 339.944 762.68 337.405 766.964 332.328C771.248 327.251 773.39 321.063 773.39 313.764C773.39 305.196 770.772 298.929 765.536 294.962C760.459 290.995 753.636 289.012 745.068 289.012H724.362ZM724.362 362.078V414.438H748.638C753.239 414.438 757.523 413.883 761.49 412.772C765.615 411.661 769.185 410.075 772.2 408.012C775.215 405.791 777.595 403.014 779.34 399.682C781.085 396.35 781.958 392.463 781.958 388.02C781.958 383.101 780.927 379.055 778.864 375.882C776.801 372.55 774.025 369.853 770.534 367.79C767.202 365.727 763.315 364.299 758.872 363.506C754.588 362.554 750.145 362.078 745.544 362.078H724.362ZM698.182 438V265.45H743.878C752.287 265.45 759.903 266.323 766.726 268.068C773.549 269.655 779.34 272.273 784.1 275.922C788.86 279.413 792.509 284.014 795.048 289.726C797.745 295.279 799.094 302.102 799.094 310.194C799.094 314.637 798.618 319 797.666 323.284C796.873 327.568 795.445 331.535 793.382 335.184C791.478 338.675 788.86 341.769 785.528 344.466C782.355 347.163 778.388 349.226 773.628 350.654C777.753 351.447 781.799 352.796 785.766 354.7C789.891 356.604 793.541 359.222 796.714 362.554C799.887 365.727 802.426 369.694 804.33 374.454C806.393 379.214 807.424 384.847 807.424 391.352C807.424 399.603 805.837 406.663 802.664 412.534C799.491 418.405 795.286 423.244 790.05 427.052C784.814 430.86 778.785 433.637 771.962 435.382C765.139 437.127 758.079 438 750.78 438H698.182ZM901.375 438V265.45H948.499C957.543 265.45 965.793 266.64 973.251 269.02C980.867 271.4 987.372 274.97 992.767 279.73C998.32 284.331 1002.6 290.043 1005.62 296.866C1008.63 303.53 1010.14 311.225 1010.14 319.952C1010.14 324.712 1009.66 329.472 1008.71 334.232C1007.76 338.833 1006.17 343.355 1003.95 347.798C1001.89 352.082 999.193 356.128 995.861 359.936C992.529 363.585 988.483 366.679 983.723 369.218C990.069 379.214 996.971 390.321 1004.43 402.538C1011.89 414.597 1019.42 426.417 1027.04 438H995.861C992.687 433.081 989.355 427.925 985.865 422.53C982.533 417.135 979.121 411.82 975.631 406.584C972.299 401.189 968.967 395.953 965.635 390.876C962.461 385.64 959.447 380.801 956.591 376.358H951.831H927.555V438H901.375ZM927.555 351.844H951.117C957.463 351.844 962.779 350.813 967.063 348.75C971.347 346.529 974.679 343.831 977.059 340.658C979.597 337.485 981.343 334.073 982.295 330.424C983.405 326.775 983.961 323.443 983.961 320.428C983.961 317.413 983.405 314.161 982.295 310.67C981.343 307.021 979.597 303.689 977.059 300.674C974.52 297.501 971.109 294.883 966.825 292.82C962.699 290.757 957.543 289.726 951.355 289.726H927.555V351.844ZM1219.56 438C1218.77 436.255 1217.66 433.716 1216.23 430.384C1214.8 427.052 1213.14 423.244 1211.23 418.96C1209.49 414.517 1207.51 409.757 1205.28 404.68C1203.22 399.444 1201.08 394.049 1198.86 388.496H1137.93L1117.46 438H1091.76L1168.63 257.358C1169.58 259.579 1171.25 263.625 1173.63 269.496C1176.17 275.367 1179.1 282.427 1182.44 290.678C1185.93 298.77 1189.73 307.814 1193.86 317.81C1198.14 327.647 1202.43 337.643 1206.71 347.798C1211.15 357.953 1215.44 367.949 1219.56 377.786C1223.85 387.623 1227.74 396.667 1231.23 404.918C1234.72 413.169 1237.65 420.229 1240.03 426.1C1242.57 431.812 1244.32 435.779 1245.27 438H1219.56ZM1146.97 366.6H1190.05C1187.83 361.364 1185.69 356.366 1183.63 351.606C1181.72 346.687 1179.9 342.245 1178.15 338.278C1176.57 334.153 1175.14 330.583 1173.87 327.568C1172.6 324.553 1171.65 322.173 1171.01 320.428C1170.85 320.111 1170.46 319 1169.82 317.096C1169.35 315.192 1168.95 313.447 1168.63 311.86C1168.31 313.447 1167.84 315.192 1167.2 317.096C1166.57 319 1166.17 320.111 1166.01 320.428L1146.97 366.6ZM1328.68 265.45H1354.62V438H1328.68V265.45ZM1610.26 265.45V445.854C1608.04 442.998 1603.75 438.397 1597.41 432.05C1591.06 425.703 1583.76 418.405 1575.51 410.154C1567.26 401.903 1558.45 393.256 1549.09 384.212C1539.89 375.168 1531.16 366.6 1522.91 358.508C1514.66 350.257 1507.44 342.959 1501.25 336.612C1495.07 330.107 1490.94 325.505 1488.88 322.808L1484.36 316.62L1485.07 324.236V438H1458.89V257.358C1460.63 259.579 1463.49 262.753 1467.46 266.878C1471.58 271.003 1476.34 275.843 1481.74 281.396C1487.29 286.791 1493.32 292.661 1499.83 299.008C1506.49 305.355 1513.15 311.781 1519.82 318.286C1526.64 324.791 1533.3 331.217 1539.81 337.564C1546.47 343.752 1552.5 349.543 1557.9 354.938C1563.45 360.333 1568.21 365.093 1572.18 369.218C1576.14 373.343 1578.92 376.437 1580.51 378.5L1585.03 385.164L1584.32 377.072V265.45H1610.26ZM1813.38 274.97L1804.1 296.152C1797.59 293.772 1791.09 291.868 1784.58 290.44C1778.23 289.012 1772.13 288.298 1766.26 288.298C1756.26 288.298 1748.25 290.361 1742.22 294.486C1736.35 298.611 1733.41 303.847 1733.41 310.194C1733.41 315.589 1735.55 319.952 1739.84 323.284C1744.12 326.457 1749.44 329.393 1755.78 332.09C1762.13 334.629 1769.03 337.247 1776.49 339.944C1783.95 342.483 1790.85 345.815 1797.2 349.94C1803.54 354.065 1808.86 359.301 1813.14 365.648C1817.43 371.836 1819.57 379.849 1819.57 389.686C1819.57 397.302 1818.14 404.204 1815.28 410.392C1812.59 416.421 1808.46 421.657 1802.91 426.1C1797.51 430.543 1790.69 433.954 1782.44 436.334C1774.35 438.714 1764.83 439.904 1753.88 439.904C1746.9 439.904 1740.55 439.428 1734.84 438.476C1729.29 437.524 1724.21 436.334 1719.61 434.906C1715.16 433.319 1711.2 431.653 1707.71 429.908C1704.38 428.163 1701.52 426.576 1699.14 425.148L1710.56 402.538C1716.91 406.187 1723.97 409.123 1731.75 411.344C1739.52 413.565 1746.58 414.676 1752.93 414.676C1756.1 414.676 1759.99 414.279 1764.59 413.486C1769.35 412.693 1773.87 411.344 1778.16 409.44C1782.44 407.377 1786.09 404.68 1789.1 401.348C1792.28 398.016 1793.86 393.811 1793.86 388.734C1793.86 384.133 1792.59 380.245 1790.06 377.072C1787.68 373.74 1784.42 370.884 1780.3 368.504C1776.33 365.965 1771.73 363.744 1766.49 361.84C1761.42 359.777 1756.18 357.715 1750.79 355.652C1745.39 353.431 1740.08 351.13 1734.84 348.75C1729.76 346.37 1725.16 343.514 1721.04 340.182C1717.07 336.691 1713.82 332.725 1711.28 328.282C1708.9 323.681 1707.71 318.207 1707.71 311.86C1707.71 305.989 1708.9 300.198 1711.28 294.486C1713.66 288.774 1717.23 283.697 1721.99 279.254C1726.75 274.811 1732.62 271.241 1739.6 268.544C1746.74 265.847 1754.99 264.498 1764.35 264.498C1770.06 264.498 1775.62 264.974 1781.01 265.926C1786.56 266.878 1791.56 267.989 1796.01 269.258C1800.45 270.369 1804.18 271.479 1807.19 272.59C1810.36 273.701 1812.43 274.494 1813.38 274.97ZM2217.16 438C2216.37 436.255 2215.26 433.716 2213.83 430.384C2212.4 427.052 2210.74 423.244 2208.83 418.96C2207.09 414.517 2205.11 409.757 2202.88 404.68C2200.82 399.444 2198.68 394.049 2196.46 388.496H2135.53L2115.06 438H2089.36L2166.23 257.358C2167.18 259.579 2168.85 263.625 2171.23 269.496C2173.77 275.367 2176.7 282.427 2180.04 290.678C2183.53 298.77 2187.34 307.814 2191.46 317.81C2195.74 327.647 2200.03 337.643 2204.31 347.798C2208.76 357.953 2213.04 367.949 2217.16 377.786C2221.45 387.623 2225.34 396.667 2228.83 404.918C2232.32 413.169 2235.25 420.229 2237.63 426.1C2240.17 431.812 2241.92 435.779 2242.87 438H2217.16ZM2144.57 366.6H2187.65C2185.43 361.364 2183.29 356.366 2181.23 351.606C2179.32 346.687 2177.5 342.245 2175.75 338.278C2174.17 334.153 2172.74 330.583 2171.47 327.568C2170.2 324.553 2169.25 322.173 2168.61 320.428C2168.45 320.111 2168.06 319 2167.42 317.096C2166.95 315.192 2166.55 313.447 2166.23 311.86C2165.92 313.447 2165.44 315.192 2164.8 317.096C2164.17 319 2163.77 320.111 2163.61 320.428L2144.57 366.6ZM2454.32 425.624C2452.42 427.052 2449.72 428.639 2446.23 430.384C2442.9 431.971 2438.93 433.478 2434.33 434.906C2429.73 436.334 2424.57 437.524 2418.86 438.476C2413.31 439.428 2407.36 439.904 2401.01 439.904C2387.52 439.904 2375.39 437.603 2364.6 433.002C2353.97 428.242 2344.92 421.895 2337.46 413.962C2330.01 406.029 2324.3 396.826 2320.33 386.354C2316.36 375.882 2314.38 364.775 2314.38 353.034C2314.38 340.023 2316.68 328.044 2321.28 317.096C2326.04 306.148 2332.47 296.707 2340.56 288.774C2348.65 280.841 2358.09 274.653 2368.88 270.21C2379.83 265.767 2391.41 263.546 2403.63 263.546C2408.23 263.546 2412.91 263.863 2417.67 264.498C2422.43 265.133 2426.87 266.005 2431 267.116C2435.28 268.227 2439.01 269.575 2442.18 271.162C2445.52 272.59 2448.06 274.097 2449.8 275.684C2448.53 277.588 2447.5 279.175 2446.71 280.444C2446.07 281.713 2445.36 283.062 2444.56 284.49C2443.77 285.759 2442.9 287.267 2441.95 289.012C2440.99 290.757 2439.73 293.058 2438.14 295.914C2436.08 294.486 2433.62 293.296 2430.76 292.344C2428.06 291.392 2425.21 290.599 2422.19 289.964C2419.18 289.329 2416.08 288.853 2412.91 288.536C2409.9 288.219 2407.12 288.06 2404.58 288.06C2395.38 288.06 2386.81 289.805 2378.88 293.296C2371.1 296.628 2364.36 301.229 2358.65 307.1C2352.93 312.812 2348.41 319.476 2345.08 327.092C2341.91 334.708 2340.32 342.641 2340.32 350.892C2340.32 358.984 2341.83 366.759 2344.84 374.216C2348.02 381.673 2352.3 388.337 2357.69 394.208C2363.25 400.079 2369.83 404.759 2377.45 408.25C2385.22 411.741 2393.71 413.486 2402.91 413.486C2407.83 413.486 2412.59 413.01 2417.19 412.058C2421.8 411.106 2425.92 409.995 2429.57 408.726C2433.38 407.457 2436.47 406.187 2438.85 404.918C2441.39 403.649 2442.9 402.697 2443.37 402.062L2454.32 425.624ZM2642.27 438C2636.72 430.86 2631.4 424.037 2626.32 417.532C2621.25 411.027 2616.25 404.521 2611.33 398.016C2606.41 391.511 2601.41 384.926 2596.34 378.262C2591.42 371.598 2586.18 364.696 2580.63 357.556C2578.57 359.777 2576.58 361.84 2574.68 363.744C2572.77 365.489 2570.71 367.314 2568.49 369.218C2568.49 381.435 2568.49 392.939 2568.49 403.728C2568.65 414.359 2568.73 425.783 2568.73 438H2539.93V265.45H2568.73V329.948C2568.73 331.376 2568.57 332.804 2568.25 334.232C2568.09 335.501 2568.01 336.85 2568.01 338.278C2568.81 337.167 2569.6 336.215 2570.39 335.422C2571.19 334.47 2571.98 333.359 2572.77 332.09C2584.04 321.459 2594.91 310.432 2605.38 299.008C2615.85 287.425 2626.72 276.239 2637.99 265.45H2671.07C2659.17 277.826 2647.35 290.281 2635.61 302.816C2624.02 315.351 2612.28 327.806 2600.38 340.182C2607.05 348.75 2613.39 357.08 2619.42 365.172C2625.61 373.105 2631.64 381.039 2637.51 388.972C2643.54 396.905 2649.57 404.918 2655.6 413.01C2661.63 421.102 2667.89 429.432 2674.4 438H2642.27Z" fill="#333333"/>
<path d="M1937.24 351.844H1960.8C1967.15 351.844 1972.47 350.733 1976.75 348.512C1981.03 346.291 1984.37 343.593 1986.75 340.42C1989.28 337.247 1991.03 333.835 1991.98 330.186C1993.09 326.537 1993.65 323.284 1993.65 320.428C1993.65 317.413 1993.09 314.161 1991.98 310.67C1991.03 307.021 1989.28 303.689 1986.75 300.674C1984.21 297.501 1980.8 294.883 1976.51 292.82C1972.39 290.757 1967.23 289.726 1961.04 289.726H1937.24V351.844ZM1911.06 438V265.45H1958.19C1967.23 265.45 1975.48 266.64 1982.94 269.02C1990.55 271.4 1997.06 274.97 2002.45 279.73C2008.01 284.331 2012.29 290.043 2015.31 296.866C2018.32 303.53 2019.83 311.225 2019.83 319.952C2019.83 326.775 2018.8 333.597 2016.73 340.42C2014.67 347.084 2011.34 353.113 2006.74 358.508C2002.14 363.744 1996.11 368.028 1988.65 371.36C1981.19 374.692 1972.15 376.358 1961.52 376.358H1937.24V438H1911.06Z" fill="#55AD88"/>
</svg>
