<svg width="2839" height="1240" viewBox="0 0 2839 1240" fill="none" xmlns="http://www.w3.org/2000/svg">
<path d="M483 669.5C480 634.5 426.5 576 373 576V498C529 498 600.23 670.375 560 750C550 724.5 530 707.5 483 669.5Z" fill="#55AD88"/>
<path d="M435.498 813.5C425.098 819.5 395.331 832.833 382.998 836.5L336.367 839.384L390.998 915.5H394.498L424.498 909L463.498 890.5L457.498 850L435.498 813.5Z" fill="#55AD88"/>
<rect y="494" width="75" height="251" fill="white"/>
<rect x="123" y="576" width="78" height="250" transform="rotate(-90 123 576)" fill="#55AD88"/>
<rect x="123" y="576" width="78" height="250" transform="rotate(-90 123 576)" stroke="white"/>
<path d="M1 838H76V1089H1V838Z" fill="#55AD88"/>
<rect x="66" y="667" width="305" height="78" fill="white"/>
<rect x="155" y="1009" width="218" height="78" fill="white"/>
<path d="M75 838H392C419.052 867.786 418.302 884.88 392 916H75V838Z" fill="#55AD88"/>
<path d="M357.908 1086.69C385.498 1087.54 412.985 1082.95 438.802 1073.18C464.618 1063.41 488.257 1048.65 508.37 1029.75C528.482 1010.84 544.674 988.161 556.021 962.998C567.368 937.835 573.647 910.683 574.501 883.094C575.354 855.504 570.765 828.016 560.995 802.199C551.226 776.383 536.467 752.744 517.561 732.631C498.656 712.519 475.974 696.327 450.811 684.98C425.648 673.633 398.496 667.354 370.906 666.501L368.493 744.516C385.838 745.052 402.907 749 418.726 756.133C434.545 763.266 448.805 773.446 460.69 786.09C472.575 798.734 481.854 813.595 487.995 829.825C494.137 846.055 497.022 863.335 496.486 880.68C495.949 898.025 492.001 915.094 484.868 930.913C477.735 946.733 467.556 960.992 454.912 972.877C442.267 984.762 427.406 994.041 411.176 1000.18C394.947 1006.32 377.666 1009.21 360.321 1008.67L357.908 1086.69Z" fill="white"/>
<path d="M766.362 745.012V795.944H789.686C798.254 795.944 804.68 793.405 808.964 788.328C813.248 783.251 815.39 777.063 815.39 769.764C815.39 761.196 812.772 754.929 807.536 750.962C802.459 746.995 795.636 745.012 787.068 745.012H766.362ZM766.362 818.078V870.438H790.638C795.239 870.438 799.523 869.883 803.49 868.772C807.615 867.661 811.185 866.075 814.2 864.012C817.215 861.791 819.595 859.014 821.34 855.682C823.085 852.35 823.958 848.463 823.958 844.02C823.958 839.101 822.927 835.055 820.864 831.882C818.801 828.55 816.025 825.853 812.534 823.79C809.202 821.727 805.315 820.299 800.872 819.506C796.588 818.554 792.145 818.078 787.544 818.078H766.362ZM740.182 894V721.45H785.878C794.287 721.45 801.903 722.323 808.726 724.068C815.549 725.655 821.34 728.273 826.1 731.922C830.86 735.413 834.509 740.014 837.048 745.726C839.745 751.279 841.094 758.102 841.094 766.194C841.094 770.637 840.618 775 839.666 779.284C838.873 783.568 837.445 787.535 835.382 791.184C833.478 794.675 830.86 797.769 827.528 800.466C824.355 803.163 820.388 805.226 815.628 806.654C819.753 807.447 823.799 808.796 827.766 810.7C831.891 812.604 835.541 815.222 838.714 818.554C841.887 821.727 844.426 825.694 846.33 830.454C848.393 835.214 849.424 840.847 849.424 847.352C849.424 855.603 847.837 862.663 844.664 868.534C841.491 874.405 837.286 879.244 832.05 883.052C826.814 886.86 820.785 889.637 813.962 891.382C807.139 893.127 800.079 894 792.78 894H740.182ZM943.375 894V721.45H990.499C999.543 721.45 1007.79 722.64 1015.25 725.02C1022.87 727.4 1029.37 730.97 1034.77 735.73C1040.32 740.331 1044.6 746.043 1047.62 752.866C1050.63 759.53 1052.14 767.225 1052.14 775.952C1052.14 780.712 1051.66 785.472 1050.71 790.232C1049.76 794.833 1048.17 799.355 1045.95 803.798C1043.89 808.082 1041.19 812.128 1037.86 815.936C1034.53 819.585 1030.48 822.679 1025.72 825.218C1032.07 835.214 1038.97 846.321 1046.43 858.538C1053.89 870.597 1061.42 882.417 1069.04 894H1037.86C1034.69 889.081 1031.36 883.925 1027.86 878.53C1024.53 873.135 1021.12 867.82 1017.63 862.584C1014.3 857.189 1010.97 851.953 1007.63 846.876C1004.46 841.64 1001.45 836.801 998.591 832.358H993.831H969.555V894H943.375ZM969.555 807.844H993.117C999.463 807.844 1004.78 806.813 1009.06 804.75C1013.35 802.529 1016.68 799.831 1019.06 796.658C1021.6 793.485 1023.34 790.073 1024.29 786.424C1025.41 782.775 1025.96 779.443 1025.96 776.428C1025.96 773.413 1025.41 770.161 1024.29 766.67C1023.34 763.021 1021.6 759.689 1019.06 756.674C1016.52 753.501 1013.11 750.883 1008.82 748.82C1004.7 746.757 999.543 745.726 993.355 745.726H969.555V807.844ZM1261.56 894C1260.77 892.255 1259.66 889.716 1258.23 886.384C1256.8 883.052 1255.14 879.244 1253.23 874.96C1251.49 870.517 1249.51 865.757 1247.28 860.68C1245.22 855.444 1243.08 850.049 1240.86 844.496H1179.93L1159.46 894H1133.76L1210.63 713.358C1211.58 715.579 1213.25 719.625 1215.63 725.496C1218.17 731.367 1221.1 738.427 1224.44 746.678C1227.93 754.77 1231.73 763.814 1235.86 773.81C1240.14 783.647 1244.43 793.643 1248.71 803.798C1253.15 813.953 1257.44 823.949 1261.56 833.786C1265.85 843.623 1269.74 852.667 1273.23 860.918C1276.72 869.169 1279.65 876.229 1282.03 882.1C1284.57 887.812 1286.32 891.779 1287.27 894H1261.56ZM1188.97 822.6H1232.05C1229.83 817.364 1227.69 812.366 1225.63 807.606C1223.72 802.687 1221.9 798.245 1220.15 794.278C1218.57 790.153 1217.14 786.583 1215.87 783.568C1214.6 780.553 1213.65 778.173 1213.01 776.428C1212.85 776.111 1212.46 775 1211.82 773.096C1211.35 771.192 1210.95 769.447 1210.63 767.86C1210.31 769.447 1209.84 771.192 1209.2 773.096C1208.57 775 1208.17 776.111 1208.01 776.428L1188.97 822.6ZM1370.68 721.45H1396.62V894H1370.68V721.45ZM1652.26 721.45V901.854C1650.04 898.998 1645.75 894.397 1639.41 888.05C1633.06 881.703 1625.76 874.405 1617.51 866.154C1609.26 857.903 1600.45 849.256 1591.09 840.212C1581.89 831.168 1573.16 822.6 1564.91 814.508C1556.66 806.257 1549.44 798.959 1543.25 792.612C1537.07 786.107 1532.94 781.505 1530.88 778.808L1526.36 772.62L1527.07 780.236V894H1500.89V713.358C1502.63 715.579 1505.49 718.753 1509.46 722.878C1513.58 727.003 1518.34 731.843 1523.74 737.396C1529.29 742.791 1535.32 748.661 1541.83 755.008C1548.49 761.355 1555.15 767.781 1561.82 774.286C1568.64 780.791 1575.3 787.217 1581.81 793.564C1588.47 799.752 1594.5 805.543 1599.9 810.938C1605.45 816.333 1610.21 821.093 1614.18 825.218C1618.14 829.343 1620.92 832.437 1622.51 834.5L1627.03 841.164L1626.32 833.072V721.45H1652.26ZM1855.38 730.97L1846.1 752.152C1839.59 749.772 1833.09 747.868 1826.58 746.44C1820.23 745.012 1814.13 744.298 1808.26 744.298C1798.26 744.298 1790.25 746.361 1784.22 750.486C1778.35 754.611 1775.41 759.847 1775.41 766.194C1775.41 771.589 1777.55 775.952 1781.84 779.284C1786.12 782.457 1791.44 785.393 1797.78 788.09C1804.13 790.629 1811.03 793.247 1818.49 795.944C1825.95 798.483 1832.85 801.815 1839.2 805.94C1845.54 810.065 1850.86 815.301 1855.14 821.648C1859.43 827.836 1861.57 835.849 1861.57 845.686C1861.57 853.302 1860.14 860.204 1857.28 866.392C1854.59 872.421 1850.46 877.657 1844.91 882.1C1839.51 886.543 1832.69 889.954 1824.44 892.334C1816.35 894.714 1806.83 895.904 1795.88 895.904C1788.9 895.904 1782.55 895.428 1776.84 894.476C1771.29 893.524 1766.21 892.334 1761.61 890.906C1757.16 889.319 1753.2 887.653 1749.71 885.908C1746.38 884.163 1743.52 882.576 1741.14 881.148L1752.56 858.538C1758.91 862.187 1765.97 865.123 1773.75 867.344C1781.52 869.565 1788.58 870.676 1794.93 870.676C1798.1 870.676 1801.99 870.279 1806.59 869.486C1811.35 868.693 1815.87 867.344 1820.16 865.44C1824.44 863.377 1828.09 860.68 1831.1 857.348C1834.28 854.016 1835.86 849.811 1835.86 844.734C1835.86 840.133 1834.59 836.245 1832.06 833.072C1829.68 829.74 1826.42 826.884 1822.3 824.504C1818.33 821.965 1813.73 819.744 1808.49 817.84C1803.42 815.777 1798.18 813.715 1792.79 811.652C1787.39 809.431 1782.08 807.13 1776.84 804.75C1771.76 802.37 1767.16 799.514 1763.04 796.182C1759.07 792.691 1755.82 788.725 1753.28 784.282C1750.9 779.681 1749.71 774.207 1749.71 767.86C1749.71 761.989 1750.9 756.198 1753.28 750.486C1755.66 744.774 1759.23 739.697 1763.99 735.254C1768.75 730.811 1774.62 727.241 1781.6 724.544C1788.74 721.847 1796.99 720.498 1806.35 720.498C1812.06 720.498 1817.62 720.974 1823.01 721.926C1828.56 722.878 1833.56 723.989 1838.01 725.258C1842.45 726.369 1846.18 727.479 1849.19 728.59C1852.36 729.701 1854.43 730.494 1855.38 730.97ZM2259.16 894C2258.37 892.255 2257.26 889.716 2255.83 886.384C2254.4 883.052 2252.74 879.244 2250.83 874.96C2249.09 870.517 2247.11 865.757 2244.88 860.68C2242.82 855.444 2240.68 850.049 2238.46 844.496H2177.53L2157.06 894H2131.36L2208.23 713.358C2209.18 715.579 2210.85 719.625 2213.23 725.496C2215.77 731.367 2218.7 738.427 2222.04 746.678C2225.53 754.77 2229.34 763.814 2233.46 773.81C2237.74 783.647 2242.03 793.643 2246.31 803.798C2250.76 813.953 2255.04 823.949 2259.16 833.786C2263.45 843.623 2267.34 852.667 2270.83 860.918C2274.32 869.169 2277.25 876.229 2279.63 882.1C2282.17 887.812 2283.92 891.779 2284.87 894H2259.16ZM2186.57 822.6H2229.65C2227.43 817.364 2225.29 812.366 2223.23 807.606C2221.32 802.687 2219.5 798.245 2217.75 794.278C2216.17 790.153 2214.74 786.583 2213.47 783.568C2212.2 780.553 2211.25 778.173 2210.61 776.428C2210.45 776.111 2210.06 775 2209.42 773.096C2208.95 771.192 2208.55 769.447 2208.23 767.86C2207.92 769.447 2207.44 771.192 2206.8 773.096C2206.17 775 2205.77 776.111 2205.61 776.428L2186.57 822.6ZM2496.32 881.624C2494.42 883.052 2491.72 884.639 2488.23 886.384C2484.9 887.971 2480.93 889.478 2476.33 890.906C2471.73 892.334 2466.57 893.524 2460.86 894.476C2455.31 895.428 2449.36 895.904 2443.01 895.904C2429.52 895.904 2417.39 893.603 2406.6 889.002C2395.97 884.242 2386.92 877.895 2379.46 869.962C2372.01 862.029 2366.3 852.826 2362.33 842.354C2358.36 831.882 2356.38 820.775 2356.38 809.034C2356.38 796.023 2358.68 784.044 2363.28 773.096C2368.04 762.148 2374.47 752.707 2382.56 744.774C2390.65 736.841 2400.09 730.653 2410.88 726.21C2421.83 721.767 2433.41 719.546 2445.63 719.546C2450.23 719.546 2454.91 719.863 2459.67 720.498C2464.43 721.133 2468.87 722.005 2473 723.116C2477.28 724.227 2481.01 725.575 2484.18 727.162C2487.52 728.59 2490.06 730.097 2491.8 731.684C2490.53 733.588 2489.5 735.175 2488.71 736.444C2488.07 737.713 2487.36 739.062 2486.56 740.49C2485.77 741.759 2484.9 743.267 2483.95 745.012C2482.99 746.757 2481.73 749.058 2480.14 751.914C2478.08 750.486 2475.62 749.296 2472.76 748.344C2470.06 747.392 2467.21 746.599 2464.19 745.964C2461.18 745.329 2458.08 744.853 2454.91 744.536C2451.9 744.219 2449.12 744.06 2446.58 744.06C2437.38 744.06 2428.81 745.805 2420.88 749.296C2413.1 752.628 2406.36 757.229 2400.65 763.1C2394.93 768.812 2390.41 775.476 2387.08 783.092C2383.91 790.708 2382.32 798.641 2382.32 806.892C2382.32 814.984 2383.83 822.759 2386.84 830.216C2390.02 837.673 2394.3 844.337 2399.69 850.208C2405.25 856.079 2411.83 860.759 2419.45 864.25C2427.22 867.741 2435.71 869.486 2444.91 869.486C2449.83 869.486 2454.59 869.01 2459.19 868.058C2463.8 867.106 2467.92 865.995 2471.57 864.726C2475.38 863.457 2478.47 862.187 2480.85 860.918C2483.39 859.649 2484.9 858.697 2485.37 858.062L2496.32 881.624ZM2684.27 894C2678.72 886.86 2673.4 880.037 2668.32 873.532C2663.25 867.027 2658.25 860.521 2653.33 854.016C2648.41 847.511 2643.41 840.926 2638.34 834.262C2633.42 827.598 2628.18 820.696 2622.63 813.556C2620.57 815.777 2618.58 817.84 2616.68 819.744C2614.77 821.489 2612.71 823.314 2610.49 825.218C2610.49 837.435 2610.49 848.939 2610.49 859.728C2610.65 870.359 2610.73 881.783 2610.73 894H2581.93V721.45H2610.73V785.948C2610.73 787.376 2610.57 788.804 2610.25 790.232C2610.09 791.501 2610.01 792.85 2610.01 794.278C2610.81 793.167 2611.6 792.215 2612.39 791.422C2613.19 790.47 2613.98 789.359 2614.77 788.09C2626.04 777.459 2636.91 766.432 2647.38 755.008C2657.85 743.425 2668.72 732.239 2679.99 721.45H2713.07C2701.17 733.826 2689.35 746.281 2677.61 758.816C2666.02 771.351 2654.28 783.806 2642.38 796.182C2649.05 804.75 2655.39 813.08 2661.42 821.172C2667.61 829.105 2673.64 837.039 2679.51 844.972C2685.54 852.905 2691.57 860.918 2697.6 869.01C2703.63 877.102 2709.89 885.432 2716.4 894H2684.27Z" fill="white"/>
<path d="M1979.24 807.844H2002.8C2009.15 807.844 2014.47 806.733 2018.75 804.512C2023.03 802.291 2026.37 799.593 2028.75 796.42C2031.28 793.247 2033.03 789.835 2033.98 786.186C2035.09 782.537 2035.65 779.284 2035.65 776.428C2035.65 773.413 2035.09 770.161 2033.98 766.67C2033.03 763.021 2031.28 759.689 2028.75 756.674C2026.21 753.501 2022.8 750.883 2018.51 748.82C2014.39 746.757 2009.23 745.726 2003.04 745.726H1979.24V807.844ZM1953.06 894V721.45H2000.19C2009.23 721.45 2017.48 722.64 2024.94 725.02C2032.55 727.4 2039.06 730.97 2044.45 735.73C2050.01 740.331 2054.29 746.043 2057.31 752.866C2060.32 759.53 2061.83 767.225 2061.83 775.952C2061.83 782.775 2060.8 789.597 2058.73 796.42C2056.67 803.084 2053.34 809.113 2048.74 814.508C2044.14 819.744 2038.11 824.028 2030.65 827.36C2023.19 830.692 2014.15 832.358 2003.52 832.358H1979.24V894H1953.06Z" fill="#55AD88"/>
</svg>
