<?xml version="1.0" encoding="utf-8"?>
<!-- Generator: Adobe Illustrator 27.1.1, SVG Export Plug-In . SVG Version: 6.00 Build 0)  -->
<svg version="1.1" id="Layer_1" xmlns="http://www.w3.org/2000/svg" xmlns:xlink="http://www.w3.org/1999/xlink" x="0px" y="0px"
	 viewBox="0 0  100 1000" style="enable-background:new 0 0 1920 1080;" xml:space="preserve">
<style type="text/css">
	.st0{fill:#55AD88;}
	.st1{fill:#0CC676;}
	.st2{fill:white;}
	.st3{font-family:'ReemKufi-Regular';}
	<!-- .st4{font-size:164.8064px;} -->
</style>
<!-- <rect x="-9" y="-26" width="1983" height="1130"/> -->
<g>
	<path class="st0" d="M547,453.41c0,0.4,0,0.82-0.01,1.25c0,0.37,0,0.75-0.01,1.13c0,0.29-0.01,0.59-0.02,0.89
		c-0.01,0.47-0.02,0.96-0.03,1.46c-0.01,0.25-0.02,0.5-0.02,0.76c0,0.26-0.01,0.52-0.02,0.78c-0.01,0.26-0.02,0.52-0.02,0.79
		c-0.01,0.31-0.02,0.63-0.04,0.94c-0.02,0.52-0.05,1.04-0.07,1.56c-0.02,0.46-0.05,0.94-0.08,1.42c-0.02,0.46-0.06,0.92-0.09,1.36
		c-0.01,0.21-0.02,0.43-0.04,0.64v0.01c-0.02,0.21-0.03,0.41-0.05,0.62v0.03c-0.03,0.39-0.06,0.77-0.09,1.17
		c-0.02,0.22-0.04,0.44-0.06,0.65c0,0,0,0,0,0.01c0,0.06-0.01,0.11-0.02,0.17c-0.04,0.53-0.09,1.06-0.15,1.61
		c0,0.06-0.01,0.12-0.02,0.18c-0.04,0.43-0.09,0.87-0.13,1.31c-0.02,0.14-0.02,0.27-0.04,0.39c-0.02,0.12-0.02,0.24-0.04,0.36
		c-0.05,0.44-0.1,0.88-0.16,1.33c-0.02,0.15-0.03,0.3-0.06,0.46c-0.27,2.38-0.61,4.85-1.03,7.42c-1.46,8.93-5.19,27.43-15.33,48.46
		c-5.02-8.83-10.8-17.25-17.19-25.07c-0.67-0.82-1.34-1.64-2.01-2.43c-8.68-10.3-18.5-19.69-29.17-27.88
		c-0.79-0.61-1.59-1.21-2.39-1.8c1.08-6.11,1.65-12.39,1.65-18.8c0-0.27,0-0.54-0.01-0.81c0.01-0.06,0-0.12-0.01-0.17v-0.13
		c0.01-0.03,0-0.07,0-0.1c0.01-0.09,0.01-0.16,0.01-0.24v-0.03c0-0.01,0-0.01,0-0.02c0-0.01,0-0.01,0-0.02
		c0.01-0.03,0.01-0.07,0-0.11c0.01-0.27,0.01-0.54,0.01-0.81c0-10.72-1.57-21.09-4.51-30.91c-0.37-1.24-0.76-2.46-1.17-3.68
		c-3.63-10.72-8.91-20.75-15.57-29.83c-1.31-1.8-2.68-3.56-4.11-5.29c-2.25-2.72-4.62-5.34-7.13-7.86
		c-0.47-0.47-0.95-0.94-1.43-1.42c-10.13-9.84-22.13-17.95-35.47-23.81c-1.06-0.46-2.13-0.92-3.21-1.36
		c-9.56-3.87-19.76-6.61-30.41-8.03c-0.13-0.03-0.26-0.05-0.41-0.08c-2.31-0.41-4.57-0.68-6.79-0.82c-2.44-0.07-4.88-0.14-7.32-0.21
		H170.23v-64.39h192.51v0.04c1.22-0.03,2.46-0.04,3.7-0.04c15.34,0,30.22,1.9,44.43,5.46c17.15,4.3,33.33,11.03,48.13,19.81
		c17.54,10.39,33.16,23.65,46.19,39.12c0.65,0.77,1.3,1.55,1.94,2.34c11.17,13.68,18,26.37,21.46,33.38
		c1.25,2.53,2.41,5.03,3.47,7.49c0.05,0.12,0.1,0.23,0.15,0.35c0.08,0.2,0.17,0.4,0.25,0.59c0.04,0.1,0.08,0.2,0.12,0.3
		c0.06,0.15,0.12,0.31,0.2,0.48c0.1,0.25,0.21,0.52,0.32,0.81c0.08,0.2,0.17,0.4,0.26,0.63c0.19,0.49,0.41,1.03,0.63,1.62
		c0.07,0.17,0.13,0.34,0.2,0.52c1.39,3.64,3.27,8.95,5.17,15.32c0.16,0.53,0.31,1.06,0.48,1.61c0.37,1.3,0.74,2.64,1.12,4.02
		c0.27,1.01,0.54,2.04,0.8,3.1c0.09,0.35,0.18,0.7,0.26,1.06c0.16,0.63,0.31,1.25,0.45,1.9c0.28,1.18,0.55,2.39,0.81,3.61
		c0.08,0.38,0.17,0.75,0.24,1.12c0.56,2.64,1.07,5.37,1.5,8.14c0.04,0.26,0.08,0.52,0.12,0.78c0.09,0.58,0.18,1.18,0.26,1.78
		c0.11,0.74,0.21,1.49,0.31,2.23c0.02,0.15,0.04,0.31,0.06,0.46c0.04,0.35,0.1,0.8,0.16,1.34c0.04,0.35,0.08,0.74,0.12,1.16
		c0.03,0.3,0.06,0.59,0.09,0.89c0.04,0.38,0.08,0.77,0.12,1.19c0.03,0.34,0.06,0.68,0.09,1.02c0.02,0.33,0.06,0.67,0.08,1
		c0,0.05,0.01,0.09,0.01,0.15c0.05,0.63,0.09,1.25,0.13,1.85c0.02,0.3,0.04,0.6,0.06,0.9c0.01,0.11,0.02,0.22,0.02,0.34
		c0.03,0.46,0.06,0.93,0.08,1.41c0.02,0.53,0.05,1.06,0.07,1.57c0.02,0.31,0.02,0.62,0.04,0.93c0.01,0.27,0.02,0.54,0.02,0.8
		c0.02,0.25,0.02,0.51,0.02,0.77c0.01,0.26,0.02,0.52,0.02,0.76c0.02,0.47,0.02,0.96,0.03,1.45c0.01,0.3,0.01,0.6,0.02,0.91
		c0.01,0.37,0.01,0.75,0.01,1.12C547,452.52,547,452.96,547,453.41z"/>
	<path class="st1" d="M480.24,453.78C480.24,453.77,480.23,453.77,480.24,453.78l-0.01-0.17
		C480.24,453.66,480.25,453.72,480.24,453.78z"/>
	<path class="st1" d="M545.72,432.05c-0.1-0.75-0.2-1.49-0.31-2.23c-0.08-0.6-0.17-1.19-0.26-1.78c-0.04-0.27-0.07-0.52-0.12-0.78
		c-0.44-2.77-0.94-5.5-1.5-8.14c-0.07-0.38-0.16-0.75-0.24-1.12c-0.26-1.22-0.53-2.43-0.81-3.61c-0.15-0.64-0.3-1.27-0.45-1.9
		c-0.08-0.36-0.17-0.71-0.26-1.06c-0.26-1.06-0.53-2.09-0.8-3.1c-0.37-1.38-0.74-2.72-1.12-4.02c-0.17-0.55-0.32-1.08-0.48-1.61
		c-1.89-6.37-3.78-11.68-5.17-15.32c-0.07-0.18-0.13-0.35-0.2-0.52c-0.22-0.59-0.44-1.13-0.63-1.62c-0.09-0.22-0.17-0.43-0.26-0.63
		c-0.12-0.29-0.22-0.56-0.32-0.81c-0.07-0.17-0.13-0.33-0.2-0.48c-0.04-0.1-0.08-0.21-0.12-0.3c7.82,18.14,10.94,33.68,12.23,41.62
		C545.11,427.2,545.45,429.67,545.72,432.05z"/>
	<path class="st1" d="M545.97,472.54c0.06-0.58,0.12-1.14,0.17-1.7C546.09,471.47,546.03,472.03,545.97,472.54z"/>
	<path class="st1" d="M546.16,470.66c0.08-0.83,0.16-1.65,0.22-2.45C546.31,469.1,546.24,469.92,546.16,470.66z"/>
	<path class="st0" d="M471.25,599.05c-3.97,2.82-8.05,5.46-12.25,7.95c-14.8,8.78-30.98,15.51-48.13,19.81
		c-14.21,3.56-29.09,5.46-44.43,5.46c-1.24,0-2.47-0.01-3.7-0.04v0.04H170.23v-0.03c-0.54,0.03-1.07,0.03-1.61,0.03
		c-0.62,0-1.25-0.01-1.86-0.04v0.04h-35.12v162.88c0.07,1.95,0.13,3.9,0.2,5.85H69.67c-0.02-0.89-0.03-1.8-0.03-2.71
		c0-1.05,0.01-2.1,0.04-3.13h-0.04V567.88h97.12c1.16-0.07,2.31-0.14,3.47-0.21v0.72h113.13v-0.52h79.38l7.32-0.21
		c2.22-0.15,4.48-0.41,6.79-0.82c0.14-0.03,0.27-0.05,0.41-0.08c10.65-1.42,20.85-4.16,30.41-8.03c1.07-0.44,2.15-0.89,3.21-1.36
		c9.25-4.07,17.87-9.22,25.65-15.28c0.36,0.3,0.71,0.6,1.06,0.91c1.38,1.2,2.77,2.48,4.2,3.86c0,0,0.98,0.96,1.39,1.37
		c2.33,2.34,4.59,4.83,6.71,7.4c1.36,1.65,2.65,3.31,3.86,4.97c6.32,8.62,11.23,18.02,14.58,27.95c0.36,1.06,0.73,2.2,1.09,3.43
		c0.5,1.66,0.9,3.13,1.24,4.5C470.87,597.35,471.06,598.19,471.25,599.05z"/>
	<rect x="170.23" y="567.88" class="st1" width="113.13" height="0.52"/>
	<path class="st1" d="M480.24,452.96c0.01,0.04,0.01,0.08,0,0.11C480.24,453.04,480.24,453,480.24,452.96L480.24,452.96z"/>
	<rect x="170.23" y="567.88" class="st1" width="113.13" height="0.52"/>
	<path d="M480.24,621.69c0.01,0.04,0,0.09-0.01,0.14L480.24,621.69L480.24,621.69z"/>
	<path d="M546.31,606.3c-0.01-0.08-0.02-0.16-0.02-0.25c-0.01-0.14-0.02-0.27-0.03-0.39c0.01,0.11,0.02,0.21,0.03,0.32
		C546.29,606.08,546.3,606.19,546.31,606.3z"/>
	<path d="M546.32,606.48c-0.01-0.05-0.01-0.1-0.02-0.15c0.01,0.02,0.01,0.03,0.01,0.04C546.31,606.41,546.32,606.45,546.32,606.48z"
		/>
	<path d="M480.24,622.51L480.24,622.51l-0.01-0.27C480.24,622.33,480.25,622.41,480.24,622.51z"/>
	<path d="M545.72,600.78c-0.12-0.9-0.24-1.79-0.37-2.69c-0.07-0.53-0.16-1.06-0.24-1.58c-0.08-0.52-0.17-1.06-0.26-1.58
		c-0.04-0.27-0.08-0.53-0.13-0.79c-0.04-0.27-0.09-0.52-0.14-0.79c-0.08-0.52-0.18-1.05-0.28-1.56c-0.09-0.52-0.19-1.04-0.29-1.55
		c-0.13-0.68-0.27-1.37-0.41-2.04c-0.19-0.93-0.39-1.85-0.59-2.76c-0.09-0.41-0.18-0.82-0.28-1.24c-0.11-0.47-0.21-0.94-0.33-1.41
		c-0.11-0.47-0.22-0.94-0.34-1.4c-0.16-0.65-0.31-1.31-0.49-1.95c-0.16-0.63-0.31-1.24-0.48-1.85c-0.17-0.65-0.34-1.3-0.52-1.93
		c-0.17-0.62-0.34-1.23-0.5-1.82c-0.17-0.57-0.32-1.12-0.49-1.67c-0.66-2.25-1.31-4.37-1.96-6.34c-0.08-0.25-0.16-0.49-0.24-0.74
		c-0.32-0.98-0.64-1.91-0.94-2.8c-0.12-0.36-0.24-0.7-0.36-1.05c-0.41-1.16-0.79-2.23-1.16-3.22c-0.07-0.18-0.13-0.36-0.2-0.54
		c-0.07-0.17-0.13-0.35-0.2-0.52c-0.12-0.34-0.25-0.67-0.37-0.99c-0.12-0.32-0.24-0.62-0.35-0.91c-0.17-0.44-0.33-0.84-0.48-1.22
		c-0.05-0.12-0.1-0.24-0.14-0.36c-0.05-0.12-0.09-0.23-0.14-0.34c-0.09-0.22-0.17-0.43-0.25-0.63c0.04,0.09,0.08,0.2,0.12,0.3
		c7.49,17.68,10.5,32.74,11.77,40.53C545.11,595.93,545.45,598.4,545.72,600.78z"/>
	<path d="M546.13,639.75c-0.05,0.55-0.11,1.06-0.16,1.5C546.03,640.75,546.08,640.25,546.13,639.75z"/>
	<path d="M547,622.06c0,0.45,0,0.88-0.01,1.32c0,0.37,0,0.75-0.01,1.13c-0.01,0.3-0.01,0.6-0.02,0.89c-0.01,0.5-0.02,0.98-0.03,1.46
		c-0.01,0.25-0.02,0.5-0.02,0.76c0,0.26-0.01,0.52-0.02,0.78c-0.01,0.26-0.02,0.52-0.02,0.79c-0.01,0.31-0.02,0.62-0.04,0.92
		c-0.02,0.52-0.05,1.05-0.07,1.58c-0.02,0.48-0.05,0.96-0.08,1.43c-0.02,0.4-0.06,0.82-0.08,1.24c0,0.03,0,0.08-0.01,0.12
		c-0.02,0.42-0.06,0.84-0.09,1.27c-0.01,0.21-0.02,0.41-0.04,0.61c-0.04,0.52-0.09,1.04-0.13,1.57c-0.06,0.6-0.12,1.21-0.17,1.82
		c-0.02,0.27-0.05,0.53-0.08,0.8c-0.02,0.23-0.05,0.46-0.07,0.7c-0.02,0.12-0.02,0.25-0.04,0.38c-0.06,0.53-0.12,0.98-0.16,1.33
		c-0.02,0.17-0.04,0.33-0.06,0.46c-0.27,2.38-0.61,4.85-1.03,7.42c-1.49,9.15-5.38,28.37-16.1,50.05
		c-3.46,7.02-10.29,19.7-21.46,33.38c-0.64,0.79-1.29,1.57-1.94,2.34c-13.03,15.47-28.65,28.73-46.19,39.12
		c-14.8,8.78-30.98,15.51-48.13,19.81c-14.21,3.56-29.09,5.46-44.43,5.46c-1.24,0-2.47-0.01-3.7-0.04V801H170.23v-64.39h192.51
		l7.32-0.21c2.22-0.14,4.48-0.4,6.79-0.82c0.14-0.03,0.27-0.05,0.41-0.08c10.65-1.42,20.85-4.16,30.41-8.03
		c1.07-0.44,2.15-0.89,3.21-1.36c13.34-5.86,25.34-13.97,35.47-23.81c0.48-0.47,0.96-0.94,1.43-1.42c2.5-2.52,4.88-5.13,7.13-7.86
		c1.43-1.73,2.8-3.49,4.11-5.29c6.66-9.08,11.94-19.11,15.57-29.83c0.41-1.22,0.8-2.45,1.17-3.68c2.94-9.82,4.51-20.19,4.51-30.91
		c0-0.27,0-0.54-0.01-0.81l-0.01-0.01v-0.26c0.01-0.04,0-0.09,0-0.14c0-0.03,0.01-0.07,0-0.1v-0.14c0-0.01,0-0.01,0-0.02
		s0-0.01,0-0.02v-0.13l0.01-0.01c0.01-0.27,0.01-0.54,0.01-0.81c0-8.99-1.11-17.73-3.2-26.11c-0.4-1.61-0.84-3.21-1.31-4.8
		c-0.37-1.24-0.76-2.46-1.17-3.68c-3.63-10.72-8.91-20.75-15.57-29.83c-1.31-1.8-2.68-3.56-4.11-5.29
		c-2.25-2.72-4.62-5.34-7.13-7.86c-0.47-0.47-0.95-0.94-1.43-1.42c-1.47-1.43-2.98-2.82-4.52-4.16
		c-9.12-7.99-19.54-14.64-30.94-19.66c-1.06-0.46-2.13-0.92-3.21-1.36c-9.56-3.87-19.76-6.61-30.41-8.03
		c-0.13-0.03-0.26-0.04-0.41-0.07c-2.31-0.42-4.57-0.69-6.79-0.82c-2.44-0.07-4.88-0.15-7.32-0.21H170.23v0.21
		c-1.16-0.07-2.31-0.14-3.47-0.21H69.64V280.33h0.04c-0.03-1.04-0.04-2.09-0.04-3.14c0-0.91,0.01-1.81,0.03-2.71h62.16
		c-0.07,1.96-0.13,3.9-0.2,5.86V443.2h35.12v0.04c0.61-0.03,1.24-0.04,1.86-0.04c0.54,0,1.07,0.01,1.61,0.03v-0.03h192.51v0.04
		c1.22-0.03,2.46-0.04,3.7-0.04c15.34,0,30.22,1.9,44.43,5.46c17.15,4.3,33.33,11.03,48.13,19.81c6.28,3.72,12.31,7.8,18.06,12.23
		c10.33,7.93,19.77,16.96,28.13,26.89c0.65,0.77,1.3,1.55,1.94,2.34c8.65,10.59,14.69,20.58,18.58,27.8
		c1.14,2.11,2.1,3.98,2.89,5.57c1.24,2.51,2.39,4.99,3.44,7.42c0.02,0.03,0.02,0.04,0.03,0.07c0.02,0.04,0.04,0.11,0.08,0.21
		c0.02,0.05,0.05,0.11,0.07,0.17c0.06,0.12,0.11,0.25,0.16,0.37c0.06,0.14,0.12,0.29,0.19,0.46c0.07,0.16,0.14,0.34,0.22,0.53
		c0.04,0.09,0.08,0.2,0.12,0.3c7.49,17.68,10.5,32.74,11.77,40.53c0.42,2.57,0.76,5.04,1.03,7.42c0.02,0.15,0.04,0.31,0.06,0.46
		c0.06,0.45,0.11,0.89,0.16,1.34c0.02,0.12,0.02,0.24,0.04,0.36c0.02,0.13,0.02,0.26,0.04,0.39c0.02,0.29,0.06,0.58,0.09,0.85
		c0.01,0.15,0.02,0.3,0.04,0.46c0,0.07,0.01,0.13,0.02,0.19c0.03,0.28,0.06,0.57,0.08,0.84c0.01,0.11,0.02,0.21,0.03,0.32
		c0.01,0.1,0.02,0.21,0.02,0.33c0,0.01,0.01,0.02,0,0.03c0.01,0.02,0.01,0.03,0.01,0.04c0,0.03,0.01,0.08,0.01,0.11
		c0,0.04,0.01,0.08,0.01,0.12c0.02,0.21,0.04,0.44,0.06,0.65c0.03,0.4,0.07,0.8,0.09,1.19c0.07,0.9,0.13,1.79,0.18,2.64
		c0.03,0.48,0.06,0.95,0.08,1.42c0.02,0.53,0.05,1.06,0.07,1.56c0.02,0.32,0.03,0.63,0.04,0.94c0.01,0.27,0.02,0.53,0.02,0.8
		c0.02,0.26,0.02,0.52,0.02,0.77c0.01,0.26,0.02,0.51,0.02,0.76c0.02,0.5,0.02,0.99,0.03,1.46c0.01,0.3,0.02,0.6,0.02,0.89
		c0.01,0.39,0.01,0.76,0.01,1.13C547,621.24,547,621.66,547,622.06z"/>
	<g>
		<path class="st2" d="M547,622.06c0,0.45,0,0.88-0.01,1.32c0,0.37,0,0.75-0.01,1.13c-0.01,0.3-0.01,0.6-0.02,0.89
			c-0.01,0.5-0.02,0.98-0.03,1.46c-0.01,0.25-0.02,0.5-0.02,0.76c0,0.26-0.01,0.52-0.02,0.78c-0.01,0.26-0.02,0.52-0.02,0.79
			c-0.01,0.31-0.02,0.62-0.04,0.92c-0.02,0.52-0.05,1.05-0.07,1.58c-0.02,0.48-0.05,0.96-0.08,1.43c-0.02,0.4-0.06,0.82-0.08,1.24
			c0,0.03,0,0.08-0.01,0.12c-0.02,0.42-0.06,0.84-0.09,1.27c-0.01,0.21-0.02,0.41-0.04,0.61c-0.04,0.52-0.09,1.04-0.13,1.57
			c-0.06,0.6-0.12,1.21-0.17,1.82c-0.02,0.27-0.05,0.53-0.08,0.8c-0.02,0.23-0.05,0.46-0.07,0.7c-0.02,0.12-0.02,0.25-0.04,0.38
			c-0.06,0.53-0.12,0.98-0.16,1.33c-0.02,0.17-0.04,0.33-0.06,0.46c-0.27,2.38-0.61,4.85-1.03,7.42
			c-1.49,9.15-5.38,28.37-16.1,50.05c-3.46,7.02-10.29,19.7-21.46,33.38c-0.64,0.79-1.29,1.57-1.94,2.34
			c-13.03,15.47-28.65,28.73-46.19,39.12c-14.8,8.78-30.98,15.51-48.13,19.81c-14.21,3.56-29.09,5.46-44.43,5.46
			c-1.24,0-2.47-0.01-3.7-0.04V801H170.23v-64.39h192.51l7.32-0.21c2.22-0.14,4.48-0.4,6.79-0.82c0.14-0.03,0.27-0.05,0.41-0.08
			c10.65-1.42,20.85-4.16,30.41-8.03c1.07-0.44,2.15-0.89,3.21-1.36c13.34-5.86,25.34-13.97,35.47-23.81
			c0.48-0.47,0.96-0.94,1.43-1.42c2.5-2.52,4.88-5.13,7.13-7.86c1.43-1.73,2.8-3.49,4.11-5.29c6.66-9.08,11.94-19.11,15.57-29.83
			c0.41-1.22,0.8-2.45,1.17-3.68c2.94-9.82,4.51-20.19,4.51-30.91c0-0.27,0-0.54-0.01-0.81c0.01-0.09,0-0.18-0.01-0.27
			c0.01-0.04,0-0.09,0-0.14c0-0.03,0.01-0.07,0-0.1v-0.14c0-0.01,0-0.01,0-0.02s0-0.01,0-0.02c0.01-0.04,0.02-0.09,0.01-0.14
			c0.01-0.27,0.01-0.54,0.01-0.81c0-8.99-1.11-17.73-3.2-26.11c-0.4-1.61-0.84-3.21-1.31-4.8c-0.37-1.24-0.76-2.46-1.17-3.68
			c-3.63-10.72-8.91-20.75-15.57-29.83c-1.31-1.8-2.68-3.56-4.11-5.29c-2.25-2.72-4.62-5.34-7.13-7.86
			c-0.47-0.47-0.95-0.94-1.43-1.42c-1.47-1.43-2.98-2.82-4.52-4.16c-9.12-7.99-19.54-14.64-30.94-19.66
			c-1.06-0.46-2.13-0.92-3.21-1.36c-9.56-3.87-19.76-6.61-30.41-8.03c-0.13-0.03-0.26-0.04-0.41-0.07
			c-2.31-0.42-4.57-0.69-6.79-0.82c-2.44-0.07-4.88-0.15-7.32-0.21H170.23v0.21c-1.16-0.07-2.31-0.14-3.47-0.21H69.64V280.33h0.04
			c-0.03-1.04-0.04-2.09-0.04-3.14c0-0.91,0.01-1.81,0.03-2.71h62.16c-0.07,1.96-0.13,3.9-0.2,5.86V443.2h35.12v0.04
			c0.61-0.03,1.24-0.04,1.86-0.04c0.54,0,1.07,0.01,1.61,0.03v-0.03h192.51v0.04c1.22-0.03,2.46-0.04,3.7-0.04
			c15.34,0,30.22,1.9,44.43,5.46c17.15,4.3,33.33,11.03,48.13,19.81c6.28,3.72,12.31,7.8,18.06,12.23
			c10.33,7.93,19.77,16.96,28.13,26.89c0.65,0.77,1.3,1.55,1.94,2.34c8.65,10.59,14.69,20.58,18.58,27.8
			c1.14,2.11,2.1,3.98,2.89,5.57c1.24,2.51,2.39,4.99,3.44,7.42c0.02,0.03,0.02,0.04,0.03,0.07c0.02,0.04,0.04,0.11,0.08,0.21
			c0.02,0.05,0.05,0.11,0.07,0.17c0.06,0.12,0.11,0.25,0.16,0.37c0.06,0.14,0.12,0.29,0.19,0.46c0.07,0.16,0.14,0.34,0.22,0.53
			c0.04,0.09,0.08,0.2,0.12,0.3c0.04,0.1,0.08,0.21,0.12,0.33c0.05,0.11,0.09,0.22,0.14,0.34c0.04,0.12,0.09,0.24,0.14,0.36
			c0.15,0.38,0.31,0.78,0.48,1.22c0.11,0.28,0.22,0.59,0.35,0.91c0.12,0.32,0.25,0.64,0.37,0.99c0.07,0.17,0.13,0.35,0.2,0.52
			c0.07,0.18,0.13,0.36,0.2,0.54c0.36,0.99,0.75,2.06,1.16,3.22c0.12,0.34,0.24,0.69,0.36,1.05c0.31,0.89,0.62,1.82,0.94,2.8
			c0.08,0.25,0.16,0.49,0.24,0.74c0.64,1.97,1.3,4.09,1.96,6.34c0.17,0.55,0.32,1.11,0.49,1.67c0.17,0.59,0.34,1.2,0.5,1.82
			c0.17,0.64,0.35,1.28,0.52,1.93c0.17,0.61,0.32,1.22,0.48,1.85c0.17,0.64,0.33,1.3,0.49,1.95c0.12,0.46,0.23,0.93,0.34,1.4
			c0.12,0.46,0.22,0.94,0.33,1.41c0.1,0.41,0.19,0.82,0.28,1.24c0.2,0.9,0.4,1.83,0.59,2.76c0.14,0.67,0.28,1.36,0.41,2.04
			c0.1,0.51,0.2,1.02,0.29,1.55c0.1,0.52,0.19,1.04,0.28,1.56c0.05,0.27,0.1,0.52,0.14,0.79c0.04,0.26,0.09,0.52,0.13,0.79
			c0.09,0.52,0.17,1.06,0.26,1.58c0.08,0.52,0.17,1.05,0.24,1.58c0.13,0.89,0.26,1.79,0.37,2.69c0.02,0.15,0.04,0.31,0.06,0.46
			c0.06,0.45,0.11,0.89,0.16,1.34c0.02,0.12,0.02,0.24,0.04,0.36c0.02,0.13,0.02,0.26,0.04,0.39c0.02,0.29,0.06,0.58,0.09,0.85
			c0.01,0.15,0.02,0.3,0.04,0.46c0,0.07,0.01,0.13,0.02,0.19c0.03,0.28,0.06,0.57,0.08,0.84c0.01,0.11,0.02,0.21,0.03,0.32v0.08
			c0.01,0.09,0.02,0.17,0.02,0.25c0,0.01,0.01,0.02,0,0.03c0.01,0.02,0.01,0.03,0.01,0.04c0,0.03,0.01,0.08,0.01,0.11
			c0,0.04,0.01,0.08,0.01,0.12c0.02,0.21,0.04,0.44,0.06,0.65c0.03,0.4,0.07,0.8,0.09,1.19c0.07,0.9,0.13,1.79,0.18,2.64
			c0.03,0.48,0.06,0.95,0.08,1.42c0.02,0.53,0.05,1.06,0.07,1.56c0.02,0.32,0.03,0.63,0.04,0.94c0.01,0.27,0.02,0.53,0.02,0.8
			c0.02,0.26,0.02,0.52,0.02,0.77c0.01,0.26,0.02,0.51,0.02,0.76c0.02,0.5,0.02,0.99,0.03,1.46c0.01,0.3,0.02,0.6,0.02,0.89
			c0.01,0.39,0.01,0.76,0.01,1.13C547,621.24,547,621.66,547,622.06z"/>
	</g>
</g>
<!-- <text transform="matrix(0.9676 0 0 1 646.2344 601.1953)"></text> -->
</svg>
